<?xml version="1.0" encoding="utf-8"?>
<!-- Generator: Adobe Illustrator 28.1.0, SVG Export Plug-In . SVG Version: 6.00 Build 0)  -->
<svg version="1.1" id="Layer_1" xmlns="http://www.w3.org/2000/svg" xmlns:xlink="http://www.w3.org/1999/xlink" x="0px" y="0px"
	 viewBox="0 0 762.7 168.9" style="enable-background:new 0 0 762.7 168.9;" xml:space="preserve">
<style type="text/css">
	.st0{fill:#FFFFFF;}
	.st1{fill:#981B49;}
	.st2{fill:url(#SVGID_00000103242156529066462510000014396897310833841823_);}
</style>
<g>
	<g id="Logotype_copy">
		<g>
			<path d="M302.6,151.2c-0.8-1.1-2.1-1.6-3.4-1.6c-3,0-5.2,2.7-5.2,5.6c0,3.1,2.1,5.6,5.2,5.6c1.6,0,3-0.7,3.9-1.9l1.2,1
				c-1.2,1.6-3,2.4-5.1,2.4c-3.9,0-6.9-3-6.9-7.1c0-4,2.9-7.1,6.9-7.1c1.8,0,3.6,0.6,4.8,2.1L302.6,151.2z"/>
			<path d="M340.3,156.8c0,2.9-1.4,5.5-5.1,5.5c-3.7,0-5.1-2.6-5.1-5.5v-8.4h1.6v8.1c0,2.2,0.8,4.3,3.5,4.3c2.7,0,3.5-2.1,3.5-4.3
				v-8.1h1.6L340.3,156.8L340.3,156.8z"/>
			<path d="M306.9,148.4c0.6,0,1.1,0.5,1.1,1.1c0,0.6-0.5,1.1-1.1,1.1c-0.6,0-1.1-0.5-1.1-1.1C305.9,148.9,306.3,148.4,306.9,148.4
				 M306.2,153h1.5v9h-1.5V153z"/>
			<path d="M315.2,154.3h-2.6v4.5c0,1.1,0,2.1,1.3,2.1c0.4,0,0.9-0.1,1.3-0.3l0,1.4c-0.5,0.2-1.2,0.3-1.7,0.3c-2.1,0-2.5-1.1-2.5-3
				v-4.9h-2V153h2v-2.5h1.5v2.5h2.6L315.2,154.3L315.2,154.3z"/>
			<path d="M321.1,164c-0.6,1.5-1.2,2.5-3,2.5c-0.4,0-0.9,0-1.3-0.2l0.2-1.3c0.3,0.1,0.6,0.2,1,0.2c1,0,1.3-0.6,1.7-1.5l0.6-1.7
				l-3.7-9h1.7l2.8,7h0l2.6-7h1.6L321.1,164z"/>
			<path d="M342.3,155.1c0-0.8-0.1-1.5-0.1-2.1h1.4c0,0.5,0,1,0,1.5h0c0.4-0.9,1.5-1.7,3-1.7c2.4,0,3.4,1.5,3.4,3.7v5.5h-1.5v-5.4
				c0-1.5-0.6-2.4-2-2.4c-1.9,0-2.8,1.4-2.8,3.5v4.4h-1.5L342.3,155.1L342.3,155.1z"/>
			<path d="M352.9,148.4c0.6,0,1.1,0.5,1.1,1.1c0,0.6-0.5,1.1-1.1,1.1s-1.1-0.5-1.1-1.1C351.8,148.9,352.3,148.4,352.9,148.4
				 M352.1,153h1.5v9h-1.5V153z"/>
			<polygon points="360.8,162 359.1,162 355.5,153 357.2,153 360,160 360.1,160 362.7,153 364.3,153 			"/>
			<path d="M382.3,159.6c0.6,0.7,1.2,1.2,2.3,1.2c0.9,0,2-0.4,2-1.4c0-1-1-1.2-1.9-1.4c-1.7-0.4-3.2-0.7-3.2-2.6
				c0-1.7,1.7-2.6,3.3-2.6c1.3,0,2.4,0.5,3.1,1.6l-1.2,0.8c-0.4-0.6-1-1.1-1.9-1.1c-0.8,0-1.8,0.4-1.8,1.2c0,0.8,1.1,1.1,2.3,1.3
				c1.6,0.3,2.9,0.9,2.9,2.7c0,2-1.8,2.8-3.6,2.8c-1.5,0-2.6-0.4-3.5-1.7L382.3,159.6z"/>
			<path d="M373.2,160.3c-1,1.4-2.3,1.8-4,1.8c-2.8,0-4.5-2.1-4.5-4.7c0-2.8,2-4.7,4.6-4.7c2.5,0,4.3,1.7,4.3,4.7v0.5h-7.2
				c0.1,1.6,1.3,2.9,2.9,2.9c1.3,0,2.1-0.5,2.9-1.4L373.2,160.3z M371.9,156.7c-0.1-1.5-1-2.5-2.7-2.5c-1.6,0-2.7,1-2.9,2.5H371.9z"
				/>
			<path d="M375.4,155.1c0-0.8-0.1-1.5-0.1-2.1h1.4c0,0.5,0,1,0,1.5h0c0.4-0.9,1.5-1.7,3-1.7c0.2,0,0.4,0,0.6,0.1l-0.1,1.5
				c-0.2-0.1-0.5-0.1-0.8-0.1c-1.8,0-2.6,1.3-2.6,3.3v4.4h-1.5L375.4,155.1L375.4,155.1z"/>
			<path d="M390.7,148.4c0.6,0,1.1,0.5,1.1,1.1c0,0.6-0.5,1.1-1.1,1.1c-0.6,0-1.1-0.5-1.1-1.1C389.6,148.9,390.1,148.4,390.7,148.4
				 M389.9,153h1.5v9h-1.5V153z"/>
			<path d="M399.3,154.3h-2.6v4.5c0,1.1,0,2.1,1.3,2.1c0.4,0,0.9-0.1,1.3-0.3l0,1.4c-0.5,0.2-1.2,0.3-1.7,0.3c-2.1,0-2.5-1.1-2.5-3
				v-4.9h-2V153h2v-2.5h1.5v2.5h2.6L399.3,154.3L399.3,154.3z"/>
			<path d="M404.9,164c-0.6,1.5-1.2,2.5-3,2.5c-0.4,0-0.9,0-1.3-0.2l0.2-1.3c0.3,0.1,0.6,0.2,1,0.2c1,0,1.3-0.6,1.7-1.5l0.6-1.7
				l-3.7-9h1.7l2.8,7h0l2.6-7h1.6L404.9,164z"/>
			<path d="M418.1,152.8c2.8,0,4.8,1.9,4.8,4.7c0,2.8-2,4.7-4.8,4.7c-2.8,0-4.8-1.9-4.8-4.7C413.3,154.7,415.3,152.8,418.1,152.8
				 M418.1,160.8c1.9,0,3.2-1.4,3.2-3.3c0-1.9-1.2-3.3-3.2-3.3s-3.2,1.4-3.2,3.3C414.9,159.4,416.1,160.8,418.1,160.8"/>
			<path d="M425.4,154.3h-2V153h2v-2c0-2.2,0.8-3.7,3.2-3.7c0.4,0,0.9,0.1,1.2,0.2l-0.2,1.3c-0.3-0.1-0.7-0.2-1-0.2
				c-1.6,0-1.6,1.1-1.6,2.7v1.7h2.2v1.3h-2.2v7.7h-1.5L425.4,154.3L425.4,154.3z"/>
			<polygon points="435.2,148.4 436.8,148.4 436.8,154.2 444.1,154.2 444.1,148.4 445.7,148.4 445.7,162 444.1,162 444.1,155.7 
				436.8,155.7 436.8,162 435.2,162 			"/>
			<path d="M452.3,152.8c2.8,0,4.8,1.9,4.8,4.7c0,2.8-2,4.7-4.8,4.7c-2.8,0-4.8-1.9-4.8-4.7C447.5,154.7,449.6,152.8,452.3,152.8
				 M452.3,160.8c1.9,0,3.2-1.4,3.2-3.3c0-1.9-1.2-3.3-3.2-3.3c-1.9,0-3.2,1.4-3.2,3.3C449.1,159.4,450.4,160.8,452.3,160.8"/>
			<path d="M459,155.1c0-0.8-0.1-1.5-0.1-2.1h1.4c0,0.5,0,1,0,1.5h0c0.4-0.9,1.5-1.7,3-1.7c2.4,0,3.4,1.5,3.4,3.7v5.5h-1.5v-5.4
				c0-1.5-0.6-2.4-2-2.4c-1.9,0-2.8,1.4-2.8,3.5v4.4H459L459,155.1L459,155.1z"/>
			<path d="M478,161.6c0,3.2-1.7,5-4.9,5c-1.7,0-3.1-0.5-4.4-1.7l1.1-1.2c0.9,1,2,1.6,3.3,1.6c2.7,0,3.4-1.7,3.4-3.6v-1.2h0
				c-0.7,1.2-2,1.7-3.2,1.7c-2.8,0-4.8-2-4.8-4.6c0-2.9,1.9-4.7,4.8-4.7c1.2,0,2.6,0.6,3.2,1.8h0V153h1.5L478,161.6L478,161.6z
				 M473.3,160.7c2,0,3.2-1.5,3.2-3.3c0-1.9-1.3-3.3-3.2-3.3c-1.9,0-3.2,1.4-3.2,3.3C470.1,159.3,471.6,160.7,473.3,160.7"/>
			<path d="M500,152.8c2.8,0,4.8,1.9,4.8,4.7c0,2.8-2,4.7-4.8,4.7c-2.8,0-4.8-1.9-4.8-4.7C495.2,154.7,497.2,152.8,500,152.8
				 M500,160.8c1.9,0,3.2-1.4,3.2-3.3c0-1.9-1.2-3.3-3.2-3.3c-1.9,0-3.2,1.4-3.2,3.3C496.8,159.4,498,160.8,500,160.8"/>
			<path d="M506.6,155.1c0-0.8-0.1-1.5-0.1-2.1h1.4c0,0.5,0,1,0,1.5h0c0.4-0.9,1.5-1.7,3-1.7c2.4,0,3.4,1.5,3.4,3.7v5.5h-1.5v-5.4
				c0-1.5-0.6-2.4-2-2.4c-1.9,0-2.8,1.4-2.8,3.5v4.4h-1.5L506.6,155.1L506.6,155.1z"/>
			<path d="M525.6,161.6c0,3.2-1.7,5-4.9,5c-1.7,0-3.1-0.5-4.4-1.7l1.1-1.2c0.9,1,2,1.6,3.3,1.6c2.7,0,3.4-1.7,3.4-3.6v-1.2h0
				c-0.7,1.2-2,1.7-3.2,1.7c-2.8,0-4.8-2-4.8-4.6c0-2.9,1.9-4.7,4.8-4.7c1.2,0,2.6,0.6,3.2,1.8h0V153h1.5V161.6z M520.9,160.7
				c2,0,3.2-1.5,3.2-3.3c0-1.9-1.3-3.3-3.2-3.3c-1.9,0-3.2,1.4-3.2,3.3C517.8,159.3,519.2,160.7,520.9,160.7"/>
			<polygon points="484.8,148.4 486.4,148.4 486.4,154.3 486.7,154.3 492.8,148.4 495.1,148.4 488.5,154.6 495.5,162 493.1,162 
				486.7,155.1 486.4,155.1 486.4,162 484.8,162 			"/>
		</g>
		<g>
			<path d="M305.3,124.1h8.1v-1.3h-9.6v-2.4c2.6-0.2,5.1-0.6,7.4-1l0.2,0l-0.7-1.3l-0.1,0c-5.2,1-10.6,1.6-15.9,1.6h-0.2l0.4,1.4
				h0.1c2.6-0.1,5.1-0.2,7.4-0.4v2.2h-9.6v1.3h8.1c-0.9,0.9-2,1.8-3.4,2.8c-1.8,1.1-3.5,2-5.2,2.6l-0.2,0.1l0.6,1.2l0.2,0
				c1.8-0.6,3.7-1.7,5.7-3c1.5-1.1,2.8-2.2,3.8-3.4v5.2h-5.8v9.8h13v-9.8h-5.9v-5.2c2,2.3,5.1,4.4,9.2,6.2l0.1,0l1.1-1.2l-0.2-0.1
				C310.2,127.7,307.3,126,305.3,124.1z M308.4,134.9v3.1h-10.3v-3.1H308.4z M298.1,133.7v-2.9h10.3v2.9H298.1z"/>
			<path d="M420.6,133.1c-1.5-2-2.6-4.3-3.1-6.9h8.5v-1.4h-10.3c0.2-1.8,0.5-3.8,0.6-6.3l0-0.2h-1.4v0.2c-0.2,2.3-0.4,4.5-0.6,6.3
				h-8.6v1.4h8.4c-0.5,2.7-1.2,4.8-2.1,6.2c-1.5,2.4-3.8,4.5-7.1,6.3l-0.2,0.1l1,1.1l0.1-0.1c3.5-1.9,6-4.1,7.5-6.8
				c0.9-1.6,1.6-3.8,2.2-6.8h0.6c0.6,2.9,1.7,5.3,3.3,7.7c1.6,2.3,3.6,4.3,6.1,5.9l0.2,0.1l0.9-1.4l-0.2-0.1
				C424,136.9,422.1,135.1,420.6,133.1z"/>
			<path d="M390,120.6l-0.1-0.1c-0.9-1-1.8-1.7-2.8-2.4l-0.1-0.1l-0.9,1l0.2,0.1c1,0.7,1.9,1.5,2.6,2.3h-11.7v1.4h10.3v3.9h-7.7
				v10.9h1.6v-9.5h6.1v11.6h1.6v-11.6h6.4v7c0,0.8-0.3,0.8-0.5,0.8c-0.9,0-2-0.2-3.3-0.7l-0.3-0.1l0.1,1.5l0.1,0
				c1.2,0.4,2.3,0.6,3.3,0.6c1.3,0,2-0.7,2-2v-8.6h-8v-3.9h10.3v-1.4h-10L390,120.6z"/>
			<path d="M325.2,123.3l0.1,0.1l0.8-1.1l-0.1-0.1c-1.1-1.1-2.3-2-3.7-2.9l-0.1-0.1l-0.8,1l0.2,0.1
				C322.8,121.2,324,122.1,325.2,123.3z"/>
			<path d="M337.2,127.3h4.9V126h-5.2V123h4.1v-1.3h-4.1v-3.5h-1.4v3.5h-3.9v-3.5h-1.4v3.5h-3.4v1.3h3.4v3.1h-4.8v1.3h4.6
				c-0.3,0.7-0.8,1.5-1.4,2.2c-0.8,1-1.8,2-3.1,2.9l-0.2,0.1l1,1l0.1-0.1c1.1-0.8,2.1-1.8,3-2.9v6.4c0,0.8,0.1,1.4,0.7,1.8
				c0.6,0.4,2.1,0.5,6.8,0.5c2.2,0,3-0.2,3.4-1c0.2-0.4,0.3-1.4,0.4-3.1v-0.1l-1.4-0.7l0,0.5c0,1.1-0.1,2.1-0.2,2.5
				c-0.2,0.5-0.8,0.6-2.1,0.6c-3.5,0-5.3,0-5.8-0.3c-0.3-0.2-0.4-0.4-0.4-0.7v-2.4h6.8v-4.6c1,1,2.2,2,3.7,2.9l0.1,0.1l1.1-1.2
				l-0.2-0.1C340.1,130.3,338.3,128.8,337.2,127.3z M330.9,133.3v-2.5h5.4v2.5H330.9z M335.5,123v3.1h-3.9V123H335.5z M330.3,129.5
				c0.5-0.7,0.9-1.4,1.2-2.2h4c0.5,0.8,1,1.5,1.7,2.2H330.3z"/>
			<path d="M325.6,130.7l-1.1-0.8l-0.1,0.2c-0.9,3.1-2.2,6-3.9,8.6l-0.1,0.1l1.2,0.9l0.1-0.2C323.5,136.6,324.7,133.7,325.6,130.7
				L325.6,130.7z"/>
			<path d="M324.2,128.7l0.1,0.2l0.9-1.1l-0.1-0.1c-1.1-1.2-2.3-2.2-3.7-3.2l-0.1-0.1l-0.8,1l0.2,0.1
				C321.9,126.4,323.1,127.5,324.2,128.7z"/>
			<path d="M435,129.1h17.3v2.5h1.3v-3.7H452l0.2-8.6h-5.3v1.3h3.9l0,1.6h-3.9v1.3h3.8l0,1.5h-4.2v1.3h4.1l0,1.7h-4.9l0.9-1
				l-0.1-0.1c-0.6-0.5-1-1-1.6-1.4c0.5-0.5,0.9-1,1.3-1.6l0.1-0.1l-0.5-0.6l0.8-0.9l-0.2-0.2c-0.4-0.4-0.9-0.8-1.4-1.2
				c0.5-0.5,1-1.1,1.5-1.8l0.1-0.1l-0.8-0.9l-0.1,0.2c-0.5,0.7-1,1.3-1.6,1.9c-0.6-0.5-1.4-1-2.2-1.5l-0.1-0.1l-0.8,0.9l0.2,0.1
				c0.8,0.5,1.4,0.9,2,1.4c-0.7,0.5-1.5,1-2.3,1.4l-0.2,0.1l0.6,1.1l0.1-0.1c0.9-0.4,1.8-1,2.7-1.6c0.5,0.4,0.9,0.9,1.3,1.2l0,0
				c-0.4,0.6-0.9,1.1-1.4,1.6c-0.6-0.4-1.3-0.9-2-1.4l-0.1-0.1l-0.8,0.9l0.2,0.1c0.5,0.3,1.1,0.7,1.7,1.2c-0.7,0.5-1.4,1-2.3,1.3
				l-0.2,0.1l0.6,1h-4.8l0-1.8h4.1v-1.3h-4.2l0-1.4h4v-1.3h-4l0-0.9c1.4-0.3,2.9-0.7,4.3-1.4l0.2-0.1l-0.8-1.2l-0.1,0.1
				c-1.7,0.7-3.3,1.2-4.8,1.4l-0.2,0l0.2,7.9h-1.5v3.7h1.4L435,129.1L435,129.1z M441.3,127.8c1-0.4,1.8-1,2.6-1.6
				c0.6,0.6,1.2,1,1.6,1.6l0.1,0.1L441.3,127.8L441.3,127.8z"/>
			<path d="M454.3,134.4h-10.2c0,0,0,0,0,0c0,0,0-0.1,0-0.1c2.4-0.7,4.5-1.6,6.2-2.7l0.1,0v-1.1h-13.5v1.3h10.7
				c-1.1,0.5-2.4,1-3.9,1.4l0,0c0,0-0.2,0-0.3,0.1l0,0h0c-0.2,0-0.4,0.1-0.6,0.2c-0.1,0-0.2,0-0.3,0.1l-0.2,0l0.1,0.2
				c0.1,0.2,0.2,0.5,0.4,0.8h-9.8v1.3H443c0.1,0.6,0.2,1,0.3,1.7c0,0.6,0,0.9-0.2,1c-0.1,0.1-0.2,0.1-0.5,0.1
				c-0.7,0-1.5-0.2-2.4-0.6l-0.3-0.1l0.1,1.5l0.1,0c1,0.3,1.9,0.5,2.7,0.5c0.5,0,1-0.1,1.3-0.4c0.4-0.3,0.6-1,0.6-2.1
				c0-0.6-0.1-1.1-0.2-1.7h9.8L454.3,134.4L454.3,134.4z"/>
			<path d="M355.9,132.7l-0.2-1.4l-0.2,0.1c-0.6,0.4-1.1,0.6-2,0.9v-6.2h2.4v-1.3h-2.4v-6h-1.4v6h-2.8v1.3h2.8v6.8
				c-1,0.4-1.9,0.7-3,1l-0.2,0.1l0.7,1.3l0.1,0c2-0.7,4-1.5,6-2.5L355.9,132.7z"/>
			<path d="M369.6,135c-0.1,1.6-0.3,2.7-0.4,3.1c-0.1,0.3-0.2,0.3-0.3,0.3c-0.3,0-0.8-0.5-1.4-1.8c-0.3-0.7-0.6-1.6-0.9-2.4l0,0l0,0
				c1.2-1.6,2.1-4.3,2.9-8l0-0.2l-1.4-0.3l0,0.2c-0.5,2.6-1.2,4.7-2,6.3c-0.2-0.7-0.3-1.6-0.5-2.4c-0.3-1.8-0.5-3.8-0.6-5.9h5.5
				v-1.3h-5.6c-0.1-1.3-0.1-2.7-0.1-4.2v-0.2h-1.4v0.2c0,1.7,0,3,0.1,4.2h-6.8v6.7c0,2.4-0.3,4.3-1,5.7c-0.6,1.4-1.5,2.6-2.7,3.6
				l-0.1,0.1l0.9,1.1l0.1-0.1c1.3-1.1,2.3-2.3,3-3.9c0.7-1.6,1.1-3.7,1.1-6.4v-1h3.4c-0.1,2.7-0.3,4.7-0.5,5.5
				c-0.2,0.7-0.6,0.7-0.7,0.7c-0.4,0-0.9,0-1.9-0.4l-0.2-0.1v1.5l0.1,0c1,0.3,1.6,0.4,2.2,0.4c0.7,0,1.3-0.4,1.6-1.4
				c0.4-1,0.6-3.5,0.8-7.4v-0.2H358V124h5.5c0.1,2.4,0.4,4.7,0.8,6.6c0.2,1.1,0.5,2.3,0.8,3.3c-1.2,1.6-2.7,3.1-4.7,4.5l-0.2,0.1
				l0.8,1l0.1-0.1c1.7-1.1,3.2-2.4,4.3-3.9c0.3,0.8,0.6,1.5,1,2.2c0.7,1.3,1.5,2,2.3,2.2c0.5,0.1,1-0.2,1.3-0.6
				c0.3-0.6,0.6-1.6,0.8-3.4v-0.1l-1.3-1L369.6,135z"/>
			<path d="M368,122.2l0.1,0.2l1.2-0.8l-0.1-0.1c-0.6-1.1-1.2-2-2-2.9l-0.1-0.1l-1.1,0.8l0.1,0.2C367,120.4,367.5,121.2,368,122.2z"
				/>
		</g>
	</g>
	<g>
		<path d="M292.8,22.3c0-9.5,7.2-15.2,14.5-15.2c3,0,5.3,0.8,6.5,1.6l-1.2,2.4c-0.8-0.5-3-1.3-5.7-1.3c-4.4,0-11.1,4-11.1,12.5
			c0,7.2,4.9,12.5,11.1,12.5c2.5,0,4.9-0.7,5.8-1.2l1.1,2.3c-1.2,0.7-3.4,1.5-6.9,1.5C300.1,37.5,292.8,32.4,292.8,22.3z"/>
		<path d="M315.9,27.3c0-4.3,2.9-10.3,9.5-10.3c6.6,0,9.4,5.9,9.4,10.2c0,4.3-2.7,10.2-9.3,10.2C318.7,37.5,315.9,31.9,315.9,27.3z
			 M332.1,27.3c0-5.6-3.8-7.8-6.6-7.8c-2.7,0-6.8,2-6.8,7.8c0,5.6,3.9,7.8,6.7,7.8C328.1,35.1,332.1,33.1,332.1,27.3z"/>
		<path d="M339.8,17.3h2.6V20c2.4-2.2,5.1-3,6.7-3c2.8,0,4.3,1.4,4.9,3.1c0.8-0.7,3.4-3,6.8-3c3.7,0,5.2,2.4,5.2,4.7v15.5h-2.6V22.4
			c0-2.2-1.7-2.8-2.8-2.8c-2.7,0-5.6,2.6-6.3,3.4v14.3h-2.6V22.4c0-2.2-1.7-2.8-2.8-2.8c-3,0-6.2,3-6.5,3.5v14.2h-2.6L339.8,17.3
			L339.8,17.3z"/>
		<path d="M372.5,17.3h2.6V20c2.4-2.2,5.1-3,6.7-3c2.8,0,4.3,1.4,4.9,3.1c0.8-0.7,3.4-3,6.8-3c3.7,0,5.2,2.4,5.2,4.7v15.5h-2.6V22.4
			c0-2.2-1.7-2.8-2.8-2.8c-2.7,0-5.6,2.6-6.3,3.4v14.3h-2.6V22.4c0-2.2-1.7-2.8-2.8-2.8c-3,0-6.2,3-6.5,3.5v14.2h-2.6L372.5,17.3
			L372.5,17.3z"/>
		<path d="M404.8,32.4V17.3h2.6v14.1c0,2.7,1.6,3.7,3.5,3.7c2.9,0,5.8-2.9,6.2-3.4V17.3h2.6v20h-2.6v-2.8c-1.6,1.4-3.9,3.1-6.3,3.1
			C406.5,37.5,404.8,35.1,404.8,32.4z"/>
		<path d="M426.6,17.3h2.6v2.8c1.6-1.4,4.1-3,6.5-3c4.2,0,5.9,2.5,5.9,5.2v15.1h-2.6V23.2c0-2.6-1.6-3.7-3.4-3.7c-3,0-6.2,3-6.4,3.5
			v14.3h-2.6V17.3z"/>
		<path d="M448.2,10.9c0-1.1,0.9-2,2-2s2,0.9,2,2c0,1.1-0.9,2-2,2S448.2,11.9,448.2,10.9z M448.8,17.3h2.6v20h-2.6V17.3z"/>
		<path d="M457.5,27.3c0-6.5,4.6-10.2,9.4-10.2c2.5,0,4.5,0.8,5.8,1.7c0,0-1.2,2.2-1.2,2.2c-1.1-0.8-2.8-1.5-4.4-1.5
			c-3.9,0-6.8,3.1-6.8,7.9c0,5.1,3.2,7.6,6.7,7.6c2.1,0,3.9-1,4.9-1.6l1.3,2.2c-1.1,0.6-3.3,1.9-6.3,1.9
			C461,37.5,457.5,32.8,457.5,27.3z"/>
		<path d="M486.6,35.1c-1.1,0.8-3.4,2.4-6,2.4c-3.4,0-5.2-2.2-5.2-4.9c0-4.3,3.7-5.6,9-7l1.9-0.5v-1.9c0-2.6-1.4-3.7-3.7-3.7
			c-2.2,0-4.6,2-4.8,2.2l-1.5-1.9c0.8-0.6,2.9-2.8,6.3-2.8c3.4,0,6.3,1.6,6.3,5.6v11.1l2.4,2.1l-1.8,2L486.6,35.1z M484.6,27.7
			c-3.4,0.9-6.5,2.2-6.5,4.6c0,2.2,1.3,2.9,2.9,2.9c1.6,0,3.8-1.3,5.3-2.5v-5.6L484.6,27.7l0.1-0.1
			C484.6,27.7,484.6,27.7,484.6,27.7z M484.6,27.7L484.6,27.7L484.6,27.7z"/>
		<path d="M497.1,32.3V19.8h-3.5v-2.4h3.4v-3.7h2.6v3.7h5.3v2.4h-5.2v12.2c0,2.9,1.2,3.2,2.1,3.2c1.7,0,2.8-0.8,2.8-0.8l1,2.2
			c0,0-1.5,1-3.9,1C498.5,37.5,497.1,35.8,497.1,32.3z"/>
		<path d="M509.5,10.9c0-1.1,0.9-2,2-2s2,0.9,2,2c0,1.1-0.9,2-2,2C510.4,12.9,509.5,11.9,509.5,10.9z M510.2,17.3h2.6v20h-2.6V17.3z
			"/>
		<path d="M518.5,27.3c0-4.3,2.9-10.3,9.5-10.3c6.6,0,9.4,5.9,9.4,10.2c0,4.3-2.7,10.2-9.3,10.2C521.2,37.5,518.5,31.9,518.5,27.3z
			 M534.6,27.3c0-5.6-3.8-7.8-6.6-7.8c-2.7,0-6.8,2-6.8,7.8c0,5.6,3.9,7.8,6.7,7.8C530.6,35.1,534.6,33.1,534.6,27.3z"/>
		<path d="M542.3,17.3h2.6v2.8c1.6-1.4,4.1-3,6.5-3c4.2,0,5.9,2.5,5.9,5.2v15.1h-2.6V23.2c0-2.6-1.6-3.7-3.4-3.7c-3,0-6.2,3-6.4,3.5
			v14.3h-2.6L542.3,17.3L542.3,17.3z"/>
		<path d="M562.4,36.1l1.2-2.2c1.1,0.8,2.4,1.3,4,1.3c1.9,0,3.5-1.2,3.5-3.1c0-2.1-1.9-3.2-4.3-4.4c-2.7-1.4-4.3-2.7-4.3-5.6
			c0-3.3,3.2-5,5.7-5c2.2,0,3.9,0.6,4.9,1.4l-1.2,2.1c-0.7-0.6-2.3-1.1-3.7-1.1c-1.6,0-3.1,0.9-3.1,2.5c0,2,1.4,2.6,3.1,3.5
			c2.3,1.3,5.5,2.6,5.5,6.5c0,3.7-3.3,5.5-6.1,5.5C565.4,37.5,563.7,37,562.4,36.1z"/>
		<path d="M596.5,35.1c-1.1,0.8-3.4,2.4-6,2.4c-3.4,0-5.2-2.2-5.2-4.9c0-4.3,3.7-5.6,9-7l1.9-0.5v-1.9c0-2.6-1.4-3.7-3.7-3.7
			c-2.2,0-4.6,2-4.8,2.2l-1.5-1.9c0.8-0.6,2.9-2.8,6.3-2.8c3.4,0,6.3,1.6,6.3,5.6v11.1l2.4,2.1l-1.8,2L596.5,35.1z M594.5,27.7
			c-3.4,0.9-6.5,2.2-6.5,4.6c0,2.2,1.3,2.9,2.9,2.9c1.6,0,3.8-1.3,5.3-2.5v-5.6L594.5,27.7l0.1-0.1
			C594.5,27.7,594.5,27.7,594.5,27.7z M594.5,27.7L594.5,27.7L594.5,27.7z"/>
		<path d="M605.9,17.3h2.6v2.8c1.6-1.4,4.1-3,6.5-3c4.2,0,5.9,2.5,5.9,5.2v15.1h-2.6V23.2c0-2.6-1.6-3.7-3.4-3.7c-3,0-6.2,3-6.4,3.5
			v14.3h-2.6L605.9,17.3L605.9,17.3z"/>
		<path d="M625.8,27.3c0-4.7,2.2-10.2,8.2-10.2c3.2,0,5.6,2.2,6.4,2.6V6h2.6v31.3h-2.6v-2.4c-1.1,0.8-3.3,2.6-6,2.6
			C628.5,37.5,625.8,31.9,625.8,27.3z M640.4,32.1v-9.6c-0.8-0.7-3-3-6.3-3c-3.6,0-5.7,3.1-5.7,7.8c0,4.8,2.7,7.8,6.1,7.8
			C637.2,35.1,639.4,32.9,640.4,32.1z"/>
		<path d="M294.5,54.2h2.8V84h-2.8V54.2z"/>
		<path d="M304.7,64.1h2.6v2.8c1.6-1.4,4.1-3,6.5-3c4.2,0,5.9,2.5,5.9,5.2V84h-2.6V69.9c0-2.6-1.6-3.7-3.4-3.7c-3,0-6.2,3-6.4,3.5
			V84h-2.6V64.1z"/>
		<path d="M324.8,82.8l1.2-2.2c1.1,0.8,2.4,1.3,4,1.3c1.9,0,3.5-1.2,3.5-3.1c0-2.1-1.9-3.2-4.3-4.4c-2.7-1.4-4.3-2.7-4.3-5.6
			c0-3.3,3.2-5,5.7-5c2.2,0,3.9,0.6,4.9,1.4l-1.2,2.1c-0.7-0.6-2.3-1.1-3.7-1.1c-1.6,0-3.1,0.9-3.1,2.5c0,2,1.4,2.6,3.1,3.5
			c2.3,1.3,5.5,2.6,5.5,6.5c0,3.7-3.3,5.5-6.1,5.5C327.7,84.3,326.1,83.7,324.8,82.8z"/>
		<path d="M342.6,79.1V66.5h-3.5v-2.4h3.4v-3.7h2.6v3.7h5.3v2.4h-5.2v12.2c0,2.9,1.2,3.2,2.1,3.2c1.7,0,2.8-0.8,2.8-0.8l1,2.2
			c0,0-1.5,1-3.9,1C343.9,84.3,342.6,82.6,342.6,79.1z"/>
		<path d="M355,57.6c0-1.1,0.9-2,2-2s2,0.9,2,2c0,1.1-0.9,2-2,2S355,58.7,355,57.6z M355.6,64.1h2.6v20h-2.6V64.1z"/>
		<path d="M366.9,79.1V66.5h-3.5v-2.4h3.4v-3.7h2.6v3.7h5.3v2.4h-5.2v12.2c0,2.9,1.2,3.2,2.1,3.2c1.7,0,2.8-0.8,2.8-0.8l1,2.2
			c0,0-1.5,1-3.9,1C368.3,84.3,366.9,82.6,366.9,79.1z"/>
		<path d="M378.9,79.1V64.1h2.6v14.1c0,2.7,1.6,3.7,3.5,3.7c2.9,0,5.8-2.9,6.2-3.4V64.1h2.6v20h-2.6v-2.8c-1.6,1.4-3.9,3.1-6.3,3.1
			C380.6,84.3,378.9,81.8,378.9,79.1z"/>
		<path d="M401.8,79.1V66.5h-3.5v-2.4h3.4v-3.7h2.6v3.7h5.3v2.4h-5.2v12.2c0,2.9,1.2,3.2,2.1,3.2c1.7,0,2.8-0.8,2.8-0.8l1,2.2
			c0,0-1.5,1-3.9,1C403.1,84.3,401.8,82.6,401.8,79.1z"/>
		<path d="M414.2,57.6c0-1.1,0.9-2,2-2s2,0.9,2,2c0,1.1-0.9,2-2,2S414.2,58.7,414.2,57.6z M414.8,64.1h2.6v20h-2.6V64.1z"/>
		<path d="M423.1,74.1c0-4.3,2.9-10.3,9.5-10.3c6.6,0,9.4,5.9,9.4,10.2c0,4.3-2.7,10.2-9.3,10.2C425.8,84.3,423.1,78.6,423.1,74.1z
			 M439.2,74.1c0-5.6-3.8-7.8-6.6-7.8c-2.7,0-6.8,2-6.8,7.8c0,5.6,3.9,7.8,6.7,7.8C435.2,81.9,439.2,79.9,439.2,74.1z"/>
		<path d="M446.9,64.1h2.6v2.8c1.6-1.4,4.1-3,6.5-3c4.2,0,5.9,2.5,5.9,5.2V84h-2.6V69.9c0-2.6-1.6-3.7-3.4-3.7c-3,0-6.2,3-6.4,3.5
			V84h-2.6V64.1z"/>
		<path d="M478.1,81.9c-1.1,0.8-3.4,2.4-6,2.4c-3.4,0-5.2-2.2-5.2-4.9c0-4.3,3.7-5.6,9-7l1.9-0.5v-1.9c0-2.6-1.4-3.7-3.7-3.7
			c-2.2,0-4.6,2-4.8,2.2l-1.5-1.9c0.8-0.6,2.9-2.8,6.3-2.8c3.4,0,6.3,1.6,6.3,5.6v11.1l2.4,2.1l-1.8,2L478.1,81.9z M476.1,74.5
			c-3.4,0.9-6.5,2.2-6.5,4.6c0,2.2,1.3,2.9,2.9,2.9c1.6,0,3.8-1.3,5.3-2.5V74L476.1,74.5l0.1-0.1C476.1,74.4,476.1,74.4,476.1,74.5z
			 M476.1,74.5L476.1,74.5L476.1,74.5z"/>
		<path d="M487.5,52.8h2.6V84h-2.6V52.8z"/>
		<path d="M511,70.5h-2.9V84h-2.8V54.2h7.3c1.6,0,8.6-0.2,8.6,7.4c0,4.9-3.7,7.9-7.2,8.6l8.8,13l-2.6,1.2L511,70.5z M510.6,67.9
			c6.9,0,7.7-3.9,7.7-6.3c0-4.3-3.6-4.7-6.5-4.7h-3.7v11.1L510.6,67.9L510.6,67.9z"/>
		<path d="M525.5,74.3c0-5.6,3-10.5,8.9-10.5c5.3,0,7.3,3.9,7.3,8.7v1.6h-13.4c0,4.1,2.1,7.7,6.6,7.7c2.1,0,3.9-0.8,4.9-1.5
			c0,0,1.3,2.2,1.3,2.2c-1.1,0.6-3.3,1.7-6.4,1.7C528.7,84.3,525.5,79.7,525.5,74.3z M538.9,71.8c0-2.8-1.5-5.5-4.6-5.5
			c-3.7,0-5.5,3.2-5.9,5.5H538.9z"/>
		<path d="M544.8,82.8l1.2-2.2c1.1,0.8,2.4,1.3,4,1.3c1.9,0,3.5-1.2,3.5-3.1c0-2.1-1.9-3.2-4.3-4.4c-2.7-1.4-4.3-2.7-4.3-5.6
			c0-3.3,3.2-5,5.7-5c2.2,0,3.9,0.6,4.9,1.4l-1.2,2.1c-0.7-0.6-2.3-1.1-3.7-1.1c-1.6,0-3.1,0.9-3.1,2.5c0,2,1.4,2.6,3.1,3.5
			c2.3,1.3,5.5,2.6,5.5,6.5c0,3.7-3.3,5.5-6.1,5.5C547.8,84.3,546.1,83.7,544.8,82.8z"/>
		<path d="M559.8,74.3c0-5.6,3-10.5,8.9-10.5c5.3,0,7.3,3.9,7.3,8.7v1.6h-13.4c0,4.1,2.1,7.7,6.6,7.7c2.1,0,3.9-0.8,4.9-1.5
			c0,0,1.2,2.2,1.2,2.2c-1.1,0.6-3.3,1.7-6.4,1.7C563.1,84.3,559.8,79.7,559.8,74.3z M573.3,71.8c0-2.8-1.5-5.5-4.6-5.5
			c-3.7,0-5.5,3.2-5.9,5.5H573.3z"/>
		<path d="M590.3,81.9c-1.1,0.8-3.4,2.4-6,2.4c-3.4,0-5.2-2.2-5.2-4.9c0-4.3,3.7-5.6,9-7l1.9-0.5v-1.9c0-2.6-1.4-3.7-3.7-3.7
			c-2.2,0-4.6,2-4.8,2.2l-1.5-1.9c0.8-0.6,2.9-2.8,6.3-2.8c3.4,0,6.3,1.6,6.3,5.6v11.1l2.4,2.1l-1.8,2L590.3,81.9z M588.3,74.5
			c-3.4,0.9-6.5,2.2-6.5,4.6c0,2.2,1.3,2.9,2.9,2.9s3.8-1.3,5.3-2.5V74L588.3,74.5l0.1-0.1C588.3,74.4,588.3,74.4,588.3,74.5z
			 M588.3,74.5L588.3,74.5L588.3,74.5z"/>
		<path d="M599.8,64.1h2.6v2.8c0.5-0.6,2.8-3.1,5.1-3.1c1.8,0,2.5,0.4,3.2,0.7l-1.1,2.6c-0.8-0.4-1.4-0.6-2.5-0.6
			c-1.7,0-3.9,1.9-4.7,3.3V84h-2.6V64.1z"/>
		<path d="M612.6,74.1c0-6.5,4.6-10.2,9.4-10.2c2.5,0,4.5,0.8,5.8,1.7c0,0-1.2,2.2-1.2,2.2c-1.1-0.8-2.8-1.5-4.4-1.5
			c-3.9,0-6.8,3.1-6.8,7.9c0,5.1,3.2,7.6,6.7,7.6c2.1,0,3.9-1,4.9-1.6l1.3,2.2c-1.1,0.6-3.3,1.9-6.3,1.9
			C616.1,84.3,612.6,79.5,612.6,74.1z"/>
		<path d="M632.1,52.8h2.6v14.1c1.6-1.5,4.6-3,6.9-3c3.2,0,5.5,2.1,5.5,4.9V84h-2.6V69.9c0-2.7-1.6-3.6-3.5-3.6c-3,0-6,3.2-6.4,3.6
			V84h-2.6V52.8z"/>
		<path d="M660.2,69.1c0-8.5,5.7-15.2,14.6-15.2c8.6,0,14.5,6.9,14.5,15.1c0,9.1-6.1,15.2-14.5,15.2C666.1,84.3,660.2,78,660.2,69.1
			z M686.5,69.1c0-6.8-4.3-12.5-11.7-12.5s-11.7,5.8-11.7,12.5c0,6.3,4.2,12.5,11.6,12.5C682,81.7,686.5,75.9,686.5,69.1z"/>
		<path d="M696.3,66.5h-3.5v-2.4h3.5v-6.3c0-3.1,2-5.4,5.1-5.4c2,0,3.7,0.7,4,0.9l-1,2.2c0,0-1.5-0.7-2.8-0.7
			c-0.9,0-2.7,0.6-2.7,3.2v6h8.5v-6.3c0-3.1,2-5.4,5.1-5.4c2,0,3.7,0.7,4,0.9l-1,2.2c0,0-1.5-0.7-2.8-0.7c-0.9,0-2.7,0.6-2.7,3.2v6
			h11.1v20h-2.6V66.4h-8.4V84h-2.6V66.4h-8.5V84h-2.6L696.3,66.5L696.3,66.5z M717.7,57.7c0-1.1,0.9-2,2-2c1.1,0,2,0.9,2,2
			c0,1.1-0.9,2-2,2C718.6,59.6,717.7,58.7,717.7,57.7z"/>
		<path d="M727,74.1c0-6.5,4.6-10.2,9.4-10.2c2.5,0,4.5,0.8,5.8,1.7c0,0-1.2,2.2-1.2,2.2c-1.1-0.8-2.8-1.5-4.4-1.5
			c-3.9,0-6.8,3.1-6.8,7.9c0,5.1,3.2,7.6,6.7,7.6c2.1,0,3.9-1,4.9-1.6l1.3,2.2c-1.1,0.6-3.3,1.9-6.3,1.9
			C730.5,84.3,727,79.5,727,74.1z"/>
		<path d="M744.9,74.3c0-5.6,3-10.5,8.9-10.5c5.3,0,7.3,3.9,7.3,8.7v1.6h-13.4c0,4.1,2.1,7.7,6.6,7.7c2.1,0,3.9-0.8,4.9-1.5
			c0,0,1.3,2.2,1.3,2.2c-1.1,0.6-3.3,1.7-6.4,1.7C748.1,84.3,744.9,79.7,744.9,74.3z M758.3,71.8c0-2.8-1.5-5.5-4.6-5.5
			c-3.7,0-5.5,3.2-5.9,5.5H758.3z"/>
	</g>
	<g id="Guides">
	</g>
	<g id="Layer_5">
		<g>
			<path class="st0" d="M251.4,8.4c-1.2-4.3-5.6-6.9-10.1-5.8L52.1,51.7c-4.4,1.1-10.2,5-12.9,8.6l-36.3,48
				c-2.7,3.6-1.3,7.3,3.1,8.3l205.7,44.5c4.4,1,8.9-1.8,10-6.2l31.8-124c1.1-4.4,1-11.5-0.2-15.8L251.4,8.4z"/>
			<path class="st1" d="M264.4,14.8c-1.2-4.2-3.2-7.6-7.7-9.1c-3.7-1.2-7.3-2.2-11.2-3.1l0,0c2.8,0.7,5.1,2.8,5.9,5.8l1.8,6.5
				c1.2,4.3,1.3,11.4,0.2,15.8l-31.8,124c0,0.2-0.1,0.4-0.2,0.6l42.6-117.4c0.9-3,1.9-4.7,1.9-9.9C265.9,22.6,264.4,14.8,264.4,14.8
				z"/>
			<g>
				<g>
					
						<radialGradient id="SVGID_00000175323534934258598680000008185309790749379734_" cx="153.8" cy="108.7544" r="170.8488" fx="117.9981" fy="92.5757" gradientTransform="matrix(1.6716 0 0 -1.6716 -173.3073 286.5779)" gradientUnits="userSpaceOnUse">
						<stop  offset="0" style="stop-color:#E17541"/>
						<stop  offset="8.960000e-02" style="stop-color:#E0703F"/>
						<stop  offset="0.2177" style="stop-color:#DC613B"/>
						<stop  offset="0.2584" style="stop-color:#DB5B39"/>
						<stop  offset="0.366" style="stop-color:#D44143"/>
						<stop  offset="0.4643" style="stop-color:#CF2B48"/>
						<stop  offset="0.5334" style="stop-color:#CE224A"/>
						<stop  offset="0.5913" style="stop-color:#C22651"/>
						<stop  offset="0.7442" style="stop-color:#A52E60"/>
					</radialGradient>
					
						<path id="SVGID_00000002364491526217855580000014855164028969488062_" style="fill:url(#SVGID_00000175323534934258598680000008185309790749379734_);" d="
						M253.2,14.9l-1.8-6.5c-1.2-4.3-5.6-6.9-10.1-5.8L52.1,51.7c-4.4,1.1-10.2,5-12.9,8.6l-36.3,48c-2.7,3.6-1.3,7.3,3.1,8.3
						l41.1,8.9c-1.6-1-3-2.2-4.3-3.5c-2.5-2.6-4.3-5.8-5.5-9.4c-1.2-3.7-1.6-7.7-1.2-12.1c0.4-4.5,1.5-8.6,3.4-12.2s4.3-6.8,7.3-9.3
						c3-2.6,6.4-4.5,10.2-5.9c3.8-1.4,7.9-2.1,12.2-2.1c4,0,7.8,0.7,11.6,2.1c3.7,1.4,6.7,3.5,8.8,6.1l-10,9.2
						c-1.1-1.7-2.7-3.1-4.7-3.9c-2-0.8-4.1-1.3-6.3-1.3c-2.4,0-4.6,0.4-6.7,1.3c-2.1,0.9-3.9,2.1-5.5,3.6c-1.6,1.5-2.9,3.3-3.8,5.4
						c-1,2.1-1.6,4.4-1.8,6.9c-0.2,2.5,0,4.9,0.6,7c0.6,2.1,1.6,3.9,2.8,5.4c1.3,1.5,2.9,2.7,4.8,3.5c1.9,0.8,4,1.3,6.3,1.3
						c2.7,0,5.1-0.5,7.2-1.6c2.1-1.1,3.9-2.4,5.2-4.1l8.7,8.9c-2.7,2.9-6,5.1-9.8,6.8c-2.7,1.2-5.7,2-9,2.3l68.9,14.9l2-9
						c0.6,0.2,1.3,0.4,2.1,0.5c0.8,0.1,1.4,0.2,2.1,0.2c2,0,3.5-0.5,4.5-1.4c1-0.9,1.9-2.2,2.6-3.9l1.6-3.3L138.3,89h14.5l6.6,25.4
						h0.2L169.8,89h13.9l-21.8,45.5c-1,2.1-2,3.9-3.2,5.5c-1.1,1.6-2.4,3-3.9,4.1c-1.4,1.1-3.1,2-5,2.6c-0.6,0.2-1.3,0.3-2,0.5
						l63.7,13.8c4.4,1,8.9-1.8,10-6.2l31.8-124C254.5,26.3,254.4,19.2,253.2,14.9z M102.1,128.5H89L92.4,89h13.1L102.1,128.5z
						 M107.6,76.4c-0.1,1-0.4,1.9-0.8,2.8c-0.5,0.9-1.1,1.6-1.8,2.3c-0.7,0.6-1.6,1.1-2.5,1.5c-1,0.4-1.9,0.6-3,0.6
						c-2.1,0-3.9-0.7-5.2-2.1c-1.3-1.4-1.9-3.1-1.7-5c0.1-1,0.4-1.9,0.8-2.7c0.4-0.9,1-1.6,1.8-2.3c0.8-0.6,1.6-1.2,2.5-1.6
						c0.9-0.4,1.9-0.6,3-0.6c1,0,2,0.2,2.9,0.6c0.9,0.4,1.6,0.9,2.3,1.5c0.6,0.6,1.1,1.4,1.4,2.3C107.6,74.4,107.7,75.4,107.6,76.4z
						 M136.4,98.7H127l-1.3,15.1c-0.2,1.9,0.1,3.3,0.7,4.2s1.9,1.4,3.7,1.4c0.6,0,1.3,0,2-0.2c0.7-0.1,1.3-0.3,1.8-0.5l-0.7,9.5
						c-0.9,0.3-2.1,0.6-3.5,0.8s-2.8,0.4-4.2,0.4c-2.6,0-4.9-0.3-6.6-1c-1.8-0.7-3.1-1.6-4.1-2.9c-1-1.2-1.6-2.7-2-4.5
						c-0.3-1.7-0.4-3.7-0.2-5.8l1.5-16.7h-6.4l0.8-9.7h6.3l0.9-10.4h12.8L127.9,89h9.3L136.4,98.7z M233.4,107.3
						c-0.3,3.4-1.1,6.5-2.5,9.3c-1.4,2.8-3.2,5.2-5.5,7.1s-5,3.5-8.1,4.7c-3.1,1.1-6.5,1.7-10.2,1.7c-3.7,0-7-0.6-9.9-1.7
						c-2.9-1.1-5.3-2.6-7.2-4.7c-1.9-2-3.3-4.4-4.2-7.1c-0.9-2.8-1.2-5.9-0.9-9.3l3.1-35h13.6l-3,33.9c-0.1,1.5-0.1,3,0.2,4.4
						c0.3,1.4,0.8,2.6,1.5,3.7c0.7,1.1,1.7,1.9,3.1,2.6c1.3,0.6,2.9,1,4.8,1s3.6-0.3,5-1c1.4-0.6,2.6-1.5,3.5-2.6
						c0.9-1.1,1.7-2.3,2.2-3.7c0.5-1.4,0.8-2.8,0.9-4.4l3-33.9h13.6L233.4,107.3z"/>
				</g>
			</g>
		</g>
	</g>
</g>
</svg>
